<svg xmlns="http://www.w3.org/2000/svg" width="51" height="51" viewBox="0 0 51 51">
  <g id="Group_10294" data-name="Group 10294" transform="translate(-1774 -3.87)">
    <circle id="Ellipse_63" data-name="Ellipse 63" cx="25.5" cy="25.5" r="25.5" transform="translate(1774 3.87)" fill="#ededed"/>
    <path id="Icon_open-person" data-name="Icon open-person" d="M14.307,0C10.373,0,7.154,4.006,7.154,8.942s3.219,8.942,7.154,8.942,7.154-4.006,7.154-8.942S18.242,0,14.307,0ZM6.832,17.884A7.161,7.161,0,0,0,0,25.037v3.577H28.614V25.037a7.136,7.136,0,0,0-6.832-7.154,10.045,10.045,0,0,1-7.475,3.577A10.045,10.045,0,0,1,6.832,17.884Z" transform="translate(1785.128 15.128)" fill="#afafaf"/>
  </g>
</svg>
