<svg xmlns="http://www.w3.org/2000/svg" width="57" height="57" viewBox="0 0 57 57">
  <g id="Layer_2" data-name="Layer 2" transform="translate(1.5 0.5)">
    <g id="plus-circle">
      <g id="Rectangle_701" data-name="Rectangle 701" opacity="0">
        <rect id="Rectangle_701-2" data-name="Rectangle 701" width="55" height="55" transform="translate(-0.5 0.5)" fill="#04d151"/>
        <path id="Rectangle_701_-_Outline" data-name="Rectangle 701 - Outline" d="M-1-1H56V56H-1ZM54,1H1V54H54Z" transform="translate(-0.5 0.5)" fill="#fff"/>
      </g>
      <path id="Path_27186" data-name="Path 27186" d="M24.917,2A22.917,22.917,0,1,0,47.833,24.917,22.917,22.917,0,0,0,24.917,2Zm0,41.25A18.333,18.333,0,1,1,43.25,24.917,18.333,18.333,0,0,1,24.917,43.25Z" transform="translate(2.583 2.583)" fill="#04d151"/>
      <path id="Path_27186_-_Outline" data-name="Path 27186 - Outline" d="M24.917,1a23.923,23.923,0,0,1,9.31,45.953A23.923,23.923,0,0,1,15.607,2.88,23.768,23.768,0,0,1,24.917,1Zm0,45.833A21.923,21.923,0,0,0,33.447,4.722a21.923,21.923,0,0,0-17.061,40.39A21.778,21.778,0,0,0,24.917,46.833Zm0-41.25A19.276,19.276,0,1,1,17.391,7.1,19.213,19.213,0,0,1,24.917,5.583Zm0,36.667A17.333,17.333,0,1,0,12.66,37.173,17.22,17.22,0,0,0,24.917,42.25Z" transform="translate(2.583 2.583)" fill="#fff"/>
      <path id="Path_27187" data-name="Path 27187" d="M24.042,14.875H19.458V10.292a2.292,2.292,0,0,0-4.583,0v4.583H10.292a2.292,2.292,0,0,0,0,4.583h4.583v4.583a2.292,2.292,0,1,0,4.583,0V19.458h4.583a2.292,2.292,0,1,0,0-4.583Z" transform="translate(10.333 10.333)" fill="#04d151"/>
      <path id="Path_27187_-_Outline" data-name="Path 27187 - Outline" d="M17.167,7a3.3,3.3,0,0,1,3.292,3.292v3.583h3.583a3.292,3.292,0,0,1,0,6.583H20.458v3.583a3.292,3.292,0,1,1-6.583,0V20.458H10.292a3.292,3.292,0,0,1,0-6.583h3.583V10.292A3.3,3.3,0,0,1,17.167,7Zm6.875,11.458a1.292,1.292,0,0,0,0-2.583H18.458V10.292a1.292,1.292,0,1,0-2.583,0v5.583H10.292a1.292,1.292,0,0,0,0,2.583h5.583v5.583a1.292,1.292,0,1,0,2.583,0V18.458Z" transform="translate(10.333 10.333)" fill="#fff"/>
    </g>
  </g>
</svg>
