<svg id="Layer_2" data-name="Layer 2" xmlns="http://www.w3.org/2000/svg" width="30" height="30" viewBox="0 0 30 30">
  <g id="trash-2">
    <rect id="Rectangle_697" data-name="Rectangle 697" width="30" height="30" fill="#e03e3e" opacity="0"/>
    <path id="Path_27183" data-name="Path 27183" d="M25.908,7.034H19.617v-2.1A3.045,3.045,0,0,0,16.471,2H12.7A3.045,3.045,0,0,0,9.55,4.932v2.1H3.258a1.258,1.258,0,1,0,0,2.517H4.517V23.392a3.775,3.775,0,0,0,3.775,3.775H20.875a3.775,3.775,0,0,0,3.775-3.775V9.55h1.258a1.258,1.258,0,1,0,0-2.517Zm-13.842-2.1c0-.2.264-.415.629-.415h3.775c.365,0,.629.214.629.415v2.1H12.067Zm10.067,18.46a1.258,1.258,0,0,1-1.258,1.258H8.292a1.258,1.258,0,0,1-1.258-1.258V9.55h15.1Z" transform="translate(0.417 0.416)" fill="#e03e3e"/>
    <path id="Path_27184" data-name="Path 27184" d="M9.208,18.25a1.208,1.208,0,0,0,1.208-1.208V12.208a1.208,1.208,0,0,0-2.417,0v4.833A1.208,1.208,0,0,0,9.208,18.25Z" transform="translate(2.03 2.903)" fill="#e03e3e"/>
    <path id="Path_27185" data-name="Path 27185" d="M15.208,18.25a1.208,1.208,0,0,0,1.208-1.208V12.208a1.208,1.208,0,0,0-2.417,0v4.833A1.208,1.208,0,0,0,15.208,18.25Z" transform="translate(3.553 2.903)" fill="#e03e3e"/>
  </g>
</svg>
