<svg id="Layer_2" data-name="Layer 2" xmlns="http://www.w3.org/2000/svg" width="30" height="30" viewBox="0 0 30 30">
  <g id="edit-2">
    <rect id="Rectangle_696" data-name="Rectangle 696" width="30" height="30" fill="#2464bc" opacity="0"/>
    <path id="Path_27181" data-name="Path 27181" d="M23.063,20H5.271a1.21,1.21,0,1,0,0,2.417H23.063a1.21,1.21,0,1,0,0-2.417Z" transform="translate(0.833 5.167)" fill="#2464bc"/>
    <path id="Path_27182" data-name="Path 27182" d="M5.272,21.321h.114l5.3-.459a2.6,2.6,0,0,0,1.538-.689L23.661,9.3a2.24,2.24,0,0,0-.089-3.275L20.09,2.713a2.64,2.64,0,0,0-3.38-.085L5.272,13.5a2.369,2.369,0,0,0-.724,1.462L4,20a1.175,1.175,0,0,0,.369.967A1.306,1.306,0,0,0,5.272,21.321ZM18.323,4.4l3.469,3.3L19.251,10.06,15.845,6.821ZM7.013,15.171l7.155-6.755L17.6,11.679l-7.117,6.767-3.813.338Z" transform="translate(0.832 0.429)" fill="#2464bc"/>
  </g>
</svg>
