<svg xmlns="http://www.w3.org/2000/svg" width="30.394" height="30.772" viewBox="0 0 30.394 30.772">
  <path id="Path_27190" data-name="Path 27190" d="M110.764,28.979a8.793,8.793,0,1,1-8.793,8.793A8.792,8.792,0,0,1,110.764,28.979Zm5.2.015a1.3,1.3,0,0,1-1.061-2.053l.412-.713a12.591,12.591,0,1,0-4.562,24.327,1.3,1.3,0,0,1,0,2.6,15.189,15.189,0,1,1,5.871-29.2l.535-.926a1.3,1.3,0,0,1,2.252.012l2.311,4a1.3,1.3,0,0,1-1.123,1.941l-4.637,0Zm5.831,2.934a1.3,1.3,0,0,1,2.276-1.25,15.22,15.22,0,0,1,1.1,2.518,1.3,1.3,0,0,1-2.468.813,12.341,12.341,0,0,0-.907-2.081Zm1.572,6.227a1.3,1.3,0,0,1,2.591.051,14.868,14.868,0,0,1-.307,2.726,1.3,1.3,0,0,1-2.54-.518,12.652,12.652,0,0,0,.256-2.259Zm-1.752,6.175a1.3,1.3,0,0,1,2.215,1.341,15.191,15.191,0,0,1-1.627,2.211,1.3,1.3,0,0,1-1.94-1.728A12.421,12.421,0,0,0,121.617,44.33ZM117.009,48.8a1.3,1.3,0,0,1,1.25,2.276,15.063,15.063,0,0,1-2.518,1.094,1.3,1.3,0,0,1-.813-2.458,12.523,12.523,0,0,0,2.082-.912Zm-6.995-16.655h1.5v1.29a2.531,2.531,0,0,1,2.447,2.539l-1.716.059a1.283,1.283,0,0,0-.731-1.1v1.89c1.469.379,2.7.94,2.7,2.72a2.481,2.481,0,0,1-1.549,2.31,4.046,4.046,0,0,1-1.147.275V43.4h-1.5V42.111a2.926,2.926,0,0,1-2.7-2.848l1.668-.165a1.774,1.774,0,0,0,1.027,1.482V38.217c-1.235-.354-2.376-.976-2.376-2.466,0-1.446,1.134-2.138,2.376-2.321V32.144Zm1.5,6.451v2.037a1.141,1.141,0,0,0,.979-1.078c0-.508-.457-.784-.979-.959Zm-1.5-2.175V34.887c-.391.106-.742.327-.742.75,0,.376.339.618.742.783Z" transform="translate(-95.567 -22.385)" fill="#00e556" fill-rule="evenodd"/>
</svg>
