<svg xmlns="http://www.w3.org/2000/svg" width="32" height="32" viewBox="0 0 32 32">
  <g id="Layer_2" data-name="Layer 2" transform="translate(0.429 0.429)">
    <g id="upload">
      <rect id="Rectangle_707" data-name="Rectangle 707" width="32" height="32" transform="translate(31.571 31.571) rotate(180)" fill="#32b765" opacity="0"/>
      <path id="Union_1" data-name="Union 1" d="M-1028.262-13779.381h-18.167a1,1,0,0,1-1-1v-3.189a1,1,0,0,1,1-1h.6a1,1,0,0,1,1,1v1.6h15.569v-1.6a1,1,0,0,1,1-1h.6a1,1,0,0,1,1,1v3.189a1,1,0,0,1-1,1Zm-10.083-7.782v-10.381s0-.008,0-.012l-3.114,2.346a1.318,1.318,0,0,1-.779.26,1.3,1.3,0,0,1-1.039-.52,1.3,1.3,0,0,1,.26-1.814l5.192-3.9a1.3,1.3,0,0,1,1.531,0l5.189,3.661a1.3,1.3,0,0,1,.312,1.8,1.3,1.3,0,0,1-.842.534,1.3,1.3,0,0,1-.973-.222l-3.144-2.215c0,.024,0,.049,0,.074v10.381a1.3,1.3,0,0,1-1.3,1.295A1.3,1.3,0,0,1-1038.345-13787.163Z" transform="translate(1052.619 13805.976)" fill="#32b765"/>
      <path id="Union_1_-_Outline" data-name="Union 1 - Outline" d="M-1027.666-13778.881h-18.763a1.5,1.5,0,0,1-1.5-1.5v-3.189a1.5,1.5,0,0,1,1.5-1.5h.6a1.5,1.5,0,0,1,1.5,1.5v1.1h14.569v-1.1a1.5,1.5,0,0,1,1.5-1.5h.6a1.5,1.5,0,0,1,1.5,1.5v3.189A1.5,1.5,0,0,1-1027.666-13778.881Zm-18.763-5.188a.5.5,0,0,0-.5.5v3.189a.5.5,0,0,0,.5.5h18.763a.5.5,0,0,0,.5-.5v-3.189a.5.5,0,0,0-.5-.5h-.6a.5.5,0,0,0-.5.5v2.1h-16.569v-2.1a.5.5,0,0,0-.5-.5Zm9.38-1.3a1.8,1.8,0,0,1-1.8-1.795v-9.39l-2.317,1.745a1.827,1.827,0,0,1-1.076.357,1.811,1.811,0,0,1-1.438-.719,1.8,1.8,0,0,1,.359-2.516l5.2-3.9a1.779,1.779,0,0,1,1.059-.346,1.79,1.79,0,0,1,1.058.343l5.186,3.659a1.8,1.8,0,0,1,.433,2.5,1.8,1.8,0,0,1-1.165.74,1.79,1.79,0,0,1-1.35-.307l-2.351-1.656v9.489A1.8,1.8,0,0,1-1037.049-13785.368Zm-.8-12.168v10.373a.8.8,0,0,0,.8.795.8.8,0,0,0,.8-.795v-10.381c0-.016,0-.031,0-.047l-.057-1.03,3.988,2.809a.791.791,0,0,0,.465.149.8.8,0,0,0,.136-.012.8.8,0,0,0,.515-.326.8.8,0,0,0-.19-1.111l-5.193-3.665a.8.8,0,0,0-.473-.153.784.784,0,0,0-.467.151l-5.189,3.895a.8.8,0,0,0-.159,1.116.807.807,0,0,0,.639.318.816.816,0,0,0,.481-.161l3.945-2.971Z" transform="translate(1052.619 13805.976)" fill="#fff"/>
    </g>
  </g>
</svg>
