<svg xmlns="http://www.w3.org/2000/svg" version="1.1" xmlns:xlink="http://www.w3.org/1999/xlink" width="512" height="512" x="0" y="0" viewBox="0 0 32 32" style="enable-background:new 0 0 512 512" xml:space="preserve" class=""><g><path d="M19 23h7.586l-.293.293a1 1 0 1 0 1.414 1.414l2-2a1 1 0 0 0 0-1.414l-2-2a1 1 0 1 0-1.414 1.414l.293.293H19a1 1 0 1 0 0 2zM29 26h-7.586l.293-.293a1 1 0 1 0-1.414-1.414l-2 2a1 1 0 0 0 0 1.414l2 2a.997.997 0 0 0 1.414 0 1 1 0 0 0 0-1.414L21.414 28H29a1 1 0 1 0 0-2zM2 14h4v-4zM22 2c-4.411 0-8 3.589-8 8s3.589 8 8 8 8-3.589 8-8-3.589-8-8-8zm0 7.5c1.654 0 3 1.346 3 3a2.998 2.998 0 0 1-2.5 2.95v1.05a.5.5 0 1 1-1 0v-1.05A2.998 2.998 0 0 1 19 12.5a.5.5 0 1 1 1 0c0 1.103.897 2 2 2s2-.897 2-2-.897-2-2-2c-1.654 0-3-1.346-3-3a2.998 2.998 0 0 1 2.5-2.95V3.5a.5.5 0 1 1 1 0v1.05A2.998 2.998 0 0 1 25 7.5a.5.5 0 1 1-1 0c0-1.103-.897-2-2-2s-2 .897-2 2 .897 2 2 2z" fill="#05d151" opacity="1" data-original="#000000" class=""></path><path d="M13 10H7v4a1 1 0 0 1-1 1H2v14a1 1 0 0 0 1 1h13a1 1 0 0 0 1-1V17.478A8.997 8.997 0 0 1 13 10zm.5 17h-8a.5.5 0 1 1 0-1h8a.5.5 0 1 1 0 1zm0-2h-8a.5.5 0 1 1 0-1h8a.5.5 0 1 1 0 1zm0-2h-8a.5.5 0 1 1 0-1h8a.5.5 0 1 1 0 1zm0-2h-8a.5.5 0 1 1 0-1h8a.5.5 0 1 1 0 1z" fill="#05d151" opacity="1" data-original="#000000" class=""></path></g></svg>