<svg xmlns="http://www.w3.org/2000/svg" width="30.44" height="30.821" viewBox="0 0 30.44 30.821">
  <g id="Group_10378" data-name="Group 10378" transform="translate(1089.237 -4439)">
    <path id="Subtraction_1" data-name="Subtraction 1" d="M15.21,30.821A15.214,15.214,0,1,1,21.09,1.573l.536-.928A1.306,1.306,0,0,1,22.75,0h.008a1.307,1.307,0,0,1,1.124.657L26.2,4.664a1.3,1.3,0,0,1-1.124,1.945H20.427v.012a1.3,1.3,0,0,1-1.063-2.057l.413-.715a12.612,12.612,0,1,0-4.57,24.368,1.3,1.3,0,0,1,0,2.6Zm4.7-.953a1.3,1.3,0,0,1-.52-2.5,12.554,12.554,0,0,0,2.084-.914,1.286,1.286,0,0,1,.567-.131,1.3,1.3,0,0,1,.684,2.411,15.166,15.166,0,0,1-2.521,1.1A1.31,1.31,0,0,1,19.912,29.868Zm5.829-3.931a1.3,1.3,0,0,1-1.006-2.129,12.436,12.436,0,0,0,1.356-1.826,1.3,1.3,0,0,1,2.217,1.344,15.251,15.251,0,0,1-1.629,2.214A1.292,1.292,0,0,1,25.741,25.937Zm3.141-6.414a1.3,1.3,0,0,1-1.294-1.464,12.518,12.518,0,0,0,.256-2.262,1.3,1.3,0,0,1,1.3-1.172h.026a1.309,1.309,0,0,1,1.274,1.222,14.86,14.86,0,0,1-.308,2.731A1.3,1.3,0,0,1,28.882,19.523ZM28.4,12.5a1.307,1.307,0,0,1-1.221-.853,12.492,12.492,0,0,0-.908-2.084,1.3,1.3,0,0,1,2.278-1.252,15.266,15.266,0,0,1,1.1,2.522A1.3,1.3,0,0,1,28.4,12.5Z" transform="translate(-1089.237 4439)" fill="#04d151"/>
    <path id="Path_27194" data-name="Path 27194" d="M-474.667,297.945a8.761,8.761,0,0,0-8.752-8.743,8.763,8.763,0,0,0-8.76,8.735,8.765,8.765,0,0,0,8.751,8.744,8.983,8.983,0,0,0,7.323-3.951A8.283,8.283,0,0,0-474.667,297.945Zm-6.2.966q-1.264.009-2.527,0a.968.968,0,0,1-1-1c-.007-.636,0-1.272,0-1.908s0-1.251,0-1.876a.979.979,0,0,1,.961-1.041.98.98,0,0,1,.983,1.052c0,.862.007,1.725,0,2.587,0,.2.044.258.247.25.442-.017.885-.009,1.328,0a.977.977,0,0,1,1.023.979A.973.973,0,0,1-480.865,298.911Z" transform="translate(-590.594 4156.469)" fill="#04d151"/>
  </g>
</svg>
