<svg xmlns="http://www.w3.org/2000/svg" width="112" height="112" viewBox="0 0 112 112">
  <g id="Group_10341" data-name="Group 10341" transform="translate(-897 -241)">
    <circle id="Ellipse_65" data-name="Ellipse 65" cx="56" cy="56" r="56" transform="translate(897 241)" fill="#00e556" opacity="0.129"/>
    <g id="Group_10340" data-name="Group 10340" transform="translate(1412.899 -312.602)">
      <path id="Path_27175" data-name="Path 27175" d="M-475.528,758.011c-.216-.2-.511-.174-.766-.261a5.353,5.353,0,0,1-3.716-5.172q-.035-8.9,0-17.793a5.334,5.334,0,0,1,5.51-5.439q14.2-.014,28.395,0a5.307,5.307,0,0,1,5.5,5.393q.064,8.922,0,17.845a5.282,5.282,0,0,1-4.485,5.329c-.038.007-.066.063-.1.1Zm15.276-25.094v.012h-14.065a1.862,1.862,0,0,0-2.12,2.123q0,8.633,0,17.267a1.863,1.863,0,0,0,2.124,2.119h28.026a1.864,1.864,0,0,0,2.113-2.131q0-8.633,0-17.267a1.857,1.857,0,0,0-2.118-2.122Z" transform="translate(0 -124.395)" fill="#00e556"/>
      <path id="Path_27176" data-name="Path 27176" d="M-428.754,600.141c.06-1.452-.084-3.08.121-4.7a12.569,12.569,0,0,1,9.565-10.479,12.533,12.533,0,0,1,15.19,9.983,12.214,12.214,0,0,1,.2,2.3q.012,3.464,0,6.929a1.825,1.825,0,0,1-1.222,1.88,1.809,1.809,0,0,1-2.378-1.861c-.01-2.415.033-4.83-.018-7.243a8.451,8.451,0,0,0-3.692-7.011,8.49,8.49,0,0,0-9.216-.753,8.5,8.5,0,0,0-4.947,7.812c-.069,2.483-.011,4.969-.016,7.453a1.809,1.809,0,0,1-1.224,1.773,1.8,1.8,0,0,1-2.014-.629,1.856,1.856,0,0,1-.35-1.181C-428.749,603.043-428.754,601.678-428.754,600.141Z" transform="translate(-44.079)" fill="#00e556"/>
      <path id="Path_27177" data-name="Path 27177" d="M-352.24,810.5c0-.576-.009-1.152,0-1.727a1.76,1.76,0,0,1,1.732-1.737,1.758,1.758,0,0,1,1.834,1.69q.036,1.805,0,3.611a1.792,1.792,0,0,1-1.787,1.755,1.8,1.8,0,0,1-1.778-1.812C-352.248,811.685-352.24,811.092-352.24,810.5Z" transform="translate(-109.857 -191.189)" fill="#00e556"/>
    </g>
  </g>
</svg>
