<svg id="Layer_2" data-name="Layer 2" xmlns="http://www.w3.org/2000/svg" width="24" height="24" viewBox="0 0 24 24">
  <g id="close-circle">
    <rect id="Rectangle_646" data-name="Rectangle 646" width="24" height="24" fill="#e50012" opacity="0"/>
    <path id="Path_27144" data-name="Path 27144" d="M12,2A10,10,0,1,0,22,12,10,10,0,0,0,12,2Zm0,18a8,8,0,1,1,8-8A8,8,0,0,1,12,20Z" fill="#e50012"/>
    <path id="Path_27145" data-name="Path 27145" d="M14.71,9.29a1,1,0,0,0-1.42,0L12,10.59l-1.29-1.3a1,1,0,0,0-1.42,1.42L10.59,12l-1.3,1.29a1,1,0,1,0,1.42,1.42L12,13.41l1.29,1.3a1,1,0,1,0,1.42-1.42L13.41,12l1.3-1.29a1,1,0,0,0,0-1.42Z" fill="#e50012"/>
  </g>
</svg>
