<svg width="26" height="26" viewBox="0 0 26 26" fill="none" xmlns="http://www.w3.org/2000/svg">
<g clip-path="url(#clip0_75_45)">
<path d="M20.5833 13.05C19.9842 13.05 19.5 13.5354 19.5 14.1333V22.8C19.5 23.3969 19.0146 23.8833 18.4167 23.8833H3.25C2.65193 23.8833 2.16673 23.3969 2.16673 22.8V7.6333C2.16673 7.03642 2.65193 6.55003 3.25 6.55003H11.9167C12.5158 6.55003 13 6.06464 13 5.46677C13 4.8687 12.5158 4.3833 11.9167 4.3833H3.25C1.45818 4.3833 0 5.84148 0 7.6333V22.8C0 24.5919 1.45818 26.05 3.25 26.05H18.4167C20.2086 26.05 21.6667 24.5919 21.6667 22.8V14.1333C21.6667 13.5342 21.1823 13.05 20.5833 13.05Z" fill="#00E556"/>
<path d="M10.1572 12.0631C10.0815 12.1389 10.0305 12.2353 10.0089 12.3393L9.24297 16.1701C9.20726 16.3476 9.2636 16.5307 9.39134 16.6596C9.49429 16.7626 9.63295 16.8177 9.77498 16.8177C9.80949 16.8177 9.8454 16.8146 9.8811 16.807L13.7107 16.0411C13.8168 16.0193 13.9133 15.9685 13.988 15.8926L22.5594 7.32124L18.7297 3.49182L10.1572 12.0631Z" fill="#00E556"/>
<path d="M25.2068 0.842999C24.1507 -0.213291 22.4325 -0.213291 21.3772 0.842999L19.8779 2.34224L23.7076 6.17186L25.2068 4.67242C25.7182 4.16223 25.9998 3.48184 25.9998 2.75821C25.9998 2.03457 25.7182 1.35418 25.2068 0.842999Z" fill="#00E556"/>
</g>
<defs>
<clipPath id="clip0_75_45">
<rect width="26" height="26" fill="white"/>
</clipPath>
</defs>
</svg>
