<svg id="Layer_2" data-name="Layer 2" xmlns="http://www.w3.org/2000/svg" width="24" height="24" viewBox="0 0 24 24">
  <g id="email">
    <rect id="Rectangle_743" data-name="Rectangle 743" width="24" height="24" opacity="0"/>
    <path id="Path_27215" data-name="Path 27215" d="M17.867,4H4.8A2.663,2.663,0,0,0,2,6.5v8.333a2.663,2.663,0,0,0,2.8,2.5H17.867a2.663,2.663,0,0,0,2.8-2.5V6.5A2.663,2.663,0,0,0,17.867,4Zm-.625,1.667L11.333,9.625,5.425,5.667Zm.625,10H4.8a.888.888,0,0,1-.933-.833V6.708l6.907,4.625a1.024,1.024,0,0,0,1.12,0L18.8,6.708v8.125A.888.888,0,0,1,17.867,15.667Z" transform="translate(0.667 1.333)"/>
  </g>
</svg>
