<svg width="45" height="45" viewBox="0 0 45 45" fill="none" xmlns="http://www.w3.org/2000/svg">
<g clip-path="url(#clip0_136_52)">
<path d="M22.5 45C34.9264 45 45 34.9264 45 22.5C45 10.0736 34.9264 0 22.5 0C10.0736 0 0 10.0736 0 22.5C0 34.9264 10.0736 45 22.5 45Z" fill="#E21B1B"/>
<path d="M44.849 25.0756L32.3362 12.5627L13.2056 32.3972L25.5918 44.7834C35.7147 43.3913 43.6867 35.2695 44.849 25.0756Z" fill="#C40606"/>
<path d="M31.1467 32.6547C30.6967 32.6547 30.2474 32.4831 29.9036 32.14L12.8682 15.104C12.1813 14.417 12.1813 13.3047 12.8682 12.6184C13.5552 11.9322 14.6675 11.9315 15.3538 12.6184L32.3898 29.6544C33.0768 30.3414 33.0768 31.4537 32.3898 32.14C32.046 32.4831 31.5967 32.6547 31.1467 32.6547Z" fill="white"/>
<path d="M14.1104 32.6546C13.6604 32.6546 13.2111 32.483 12.8673 32.1399C12.1803 31.4529 12.1803 30.3406 12.8673 29.6543L29.9033 12.6183C30.5902 11.9314 31.7026 11.9314 32.3888 12.6183C33.0751 13.3053 33.0758 14.4176 32.3888 15.1039L15.3535 32.1399C15.0104 32.483 14.5604 32.6546 14.1104 32.6546Z" fill="white"/>
</g>
<defs>
<clipPath id="clip0_136_52">
<rect width="45" height="45" fill="white"/>
</clipPath>
</defs>
</svg>
