<svg width="20" height="19" viewBox="0 0 20 19" fill="none" xmlns="http://www.w3.org/2000/svg">
<path d="M9.99988 15.6984L4.68096 18.9029C4.52466 18.9799 4.3796 19.0111 4.24577 18.9965C4.11292 18.9809 3.98349 18.9351 3.85748 18.8591C3.73049 18.7811 3.63476 18.671 3.57028 18.5287C3.50581 18.3864 3.49995 18.2309 3.5527 18.0623L4.96815 12.0537L0.28662 8.00414C0.154746 7.89693 0.067807 7.76877 0.0258026 7.61965C-0.0162017 7.47053 -0.00692159 7.32775 0.0536428 7.1913C0.114207 7.05486 0.194797 6.94277 0.295412 6.85506C0.397004 6.77026 0.533762 6.71276 0.705687 6.68255L6.88325 6.14455L9.29215 0.454665C9.35858 0.293851 9.45431 0.17787 9.57935 0.106722C9.70438 0.0355739 9.84456 0 9.99988 0C10.1552 0 10.2959 0.0355739 10.4219 0.106722C10.5479 0.17787 10.6431 0.293851 10.7076 0.454665L13.1165 6.14455L19.2926 6.68255C19.4655 6.71179 19.6027 6.76978 19.7043 6.85652C19.8059 6.94229 19.887 7.05388 19.9476 7.1913C20.0072 7.32775 20.016 7.47053 19.9739 7.61965C19.9319 7.76877 19.845 7.89693 19.7131 8.00414L15.0316 12.0537L16.4471 18.0623C16.5018 18.229 16.4964 18.3839 16.4309 18.5272C16.3655 18.6705 16.2693 18.7806 16.1423 18.8576C16.0172 18.9356 15.8878 18.9819 15.754 18.9965C15.6211 19.0111 15.4766 18.9799 15.3203 18.9029L9.99988 15.6984Z" fill="#FBC124"/>
</svg>