<svg id="Group_9940" data-name="Group 9940" xmlns="http://www.w3.org/2000/svg" xmlns:xlink="http://www.w3.org/1999/xlink" width="125.57" height="41.948" viewBox="0 0 125.57 41.948">
  <defs>
    <clipPath id="clip-path">
      <rect id="Rectangle_436" data-name="Rectangle 436" width="125.57" height="41.948" fill="none"/>
    </clipPath>
  </defs>
  <g id="Group_9854" data-name="Group 9854" clip-path="url(#clip-path)">
    <path id="Path_26579" data-name="Path 26579" d="M207.149,55.886a5.384,5.384,0,0,1,1.284,3.887v8.9h-2.084V59.955a3.8,3.8,0,0,0-.86-2.661,3.106,3.106,0,0,0-2.411-.939,6.739,6.739,0,0,0-3.49.887,5.572,5.572,0,0,1,.34,2.087v9.339h-2.084V59.955A3.834,3.834,0,0,0,197,57.294a3.067,3.067,0,0,0-2.4-.939,7.514,7.514,0,0,0-3.2.652V68.668h-2.084V54.712a3.46,3.46,0,0,1,1.963.548,11.551,11.551,0,0,1,4.023-.7,4.374,4.374,0,0,1,3.441,1.3,8.033,8.033,0,0,1,4.822-1.3,4.753,4.753,0,0,1,3.587,1.331" transform="translate(-139.449 -40.186)" fill="#4d4d4d"/>
    <path id="Path_26580" data-name="Path 26580" d="M275.189,68.029a6.036,6.036,0,0,1-2.339-2.53,9,9,0,0,1,0-7.526,6.054,6.054,0,0,1,2.339-2.517,7.166,7.166,0,0,1,6.955,0,6.057,6.057,0,0,1,2.339,2.517,9.006,9.006,0,0,1,0,7.526,6.039,6.039,0,0,1-2.339,2.53,7.166,7.166,0,0,1-6.955,0m5.8-1.578a4.423,4.423,0,0,0,1.575-1.9,6.736,6.736,0,0,0,.558-2.817,6.65,6.65,0,0,0-.558-2.8,4.44,4.44,0,0,0-1.575-1.891,4.1,4.1,0,0,0-2.327-.678,3.982,3.982,0,0,0-3.235,1.487,6.826,6.826,0,0,0,0,7.8,3.982,3.982,0,0,0,3.235,1.487,4.1,4.1,0,0,0,2.327-.678" transform="translate(-200.376 -40.186)" fill="#4d4d4d"/>
    <path id="Path_26581" data-name="Path 26581" d="M342.623,37.522a6.062,6.062,0,0,1,2.217,2.556,8.725,8.725,0,0,1,.788,3.809,7.929,7.929,0,0,1-.836,3.717,6.024,6.024,0,0,1-2.375,2.491,6.978,6.978,0,0,1-3.55.887,11.534,11.534,0,0,1-2.035-.183,9.551,9.551,0,0,1-1.866-.522,3.24,3.24,0,0,1-1.939.574V30.818l2.084-.626v7.826a5.659,5.659,0,0,1,1.9-1.044,7.314,7.314,0,0,1,2.314-.365,5.994,5.994,0,0,1,3.3.913m-.558,10.2a5.37,5.37,0,0,0,1.406-3.887,6.567,6.567,0,0,0-.582-2.843,4.5,4.5,0,0,0-1.636-1.9,4.4,4.4,0,0,0-2.436-.678,5.373,5.373,0,0,0-1.963.378,5.9,5.9,0,0,0-1.745,1.057v8.687a8.6,8.6,0,0,0,3.223.652,4.939,4.939,0,0,0,3.732-1.461" transform="translate(-245.309 -22.24)" fill="#4d4d4d"/>
    <path id="Path_26582" data-name="Path 26582" d="M390.815,36.221a1.6,1.6,0,0,1,0-2.061,1.251,1.251,0,0,1,.958-.4,1.289,1.289,0,0,1,.969.4,1.564,1.564,0,0,1,0,2.061,1.286,1.286,0,0,1-.969.4,1.248,1.248,0,0,1-.958-.4m2.023,17.126h-2.084V39.5h2.084Z" transform="translate(-287.6 -24.865)" fill="#4d4d4d"/>
    <path id="Path_26583" data-name="Path 26583" d="M415.339,30.192v20.53h-2.084v-19.9Z" transform="translate(-304.407 -22.239)" fill="#4d4d4d"/>
    <path id="Path_26584" data-name="Path 26584" d="M443.617,62.564h-9.6q.339,4.566,4.411,4.565a11.275,11.275,0,0,0,2.144-.235,13.278,13.278,0,0,0,2.217-.626v1.722a10.826,10.826,0,0,1-2.254.678,12.984,12.984,0,0,1-2.544.261,6.029,6.029,0,0,1-3.235-.861,5.654,5.654,0,0,1-2.157-2.491,9.995,9.995,0,0,1-.024-7.6,5.887,5.887,0,0,1,2.084-2.518,5.847,5.847,0,0,1,6.192-.026,5.781,5.781,0,0,1,2.072,2.465,8.583,8.583,0,0,1,.739,3.652q0,.5-.049,1.017m-8.506-4.983a6.216,6.216,0,0,0-1.115,3.5h7.537a6.2,6.2,0,0,0-1.115-3.509,3.363,3.363,0,0,0-5.307.013" transform="translate(-318.096 -40.186)" fill="#4d4d4d"/>
    <path id="Path_26585" data-name="Path 26585" d="M20.974,41.948A20.977,20.977,0,0,1,12.111,1.959c.6-.212,1.757-.677,1.757-.677s.8-.264,1.228-.448A20.99,20.99,0,0,1,17.935.218,21.237,21.237,0,0,1,20.974,0a20.974,20.974,0,1,1,0,41.948" transform="translate(0 0)" fill="#00e556"/>
    <path id="Path_26586" data-name="Path 26586" d="M63.3,18.346,51.971,13.009v3.3l10.054,4.738a3.734,3.734,0,0,1-.045,6.777L51.966,32.389a1.952,1.952,0,0,1-2,0,1.976,1.976,0,0,1-1-1.729V3.171c-.413.121-.824.254-1.229.4q-.9.324-1.756.725V30.661a4.966,4.966,0,0,0,7.377,4.364l9.854-4.486A6.719,6.719,0,0,0,63.3,18.346" transform="translate(-33.874 -2.336)" fill="#fff"/>
  </g>
</svg>
