<svg xmlns="http://www.w3.org/2000/svg" width="49" height="52" viewBox="0 0 49 52">
  <g id="Group_10343" data-name="Group 10343" transform="translate(-495)">
    <path id="Rectangle_687" data-name="Rectangle 687" d="M0,0H42a7,7,0,0,1,7,7V45a7,7,0,0,1-7,7H0a0,0,0,0,1,0,0V0A0,0,0,0,1,0,0Z" transform="translate(495)" fill="#c9c9c9"/>
    <g id="Layer_2" data-name="Layer 2" transform="translate(508 15)">
      <g id="eye">
        <rect id="Rectangle_689" data-name="Rectangle 689" width="23" height="23" fill="#454545" stroke="#c9c9c9" stroke-width="0.5" opacity="0"/>
        <path id="Path_27178" data-name="Path 27178" d="M21.186,11.276C20.568,10.2,17.17,4.826,11.4,5c-5.34.135-8.43,4.828-9.27,6.276a.966.966,0,0,0,0,.966c.608,1.053,3.862,6.276,9.55,6.276h.241c5.34-.135,8.439-4.828,9.27-6.276A.966.966,0,0,0,21.186,11.276Zm-9.318,5.311c-4.162.1-6.875-3.467-7.725-4.828.966-1.555,3.486-4.731,7.348-4.828,4.142-.106,6.865,3.467,7.725,4.828-.995,1.555-3.486,4.731-7.348,4.828Z" transform="translate(-0.069 -0.172)" fill="#454545" stroke="#c9c9c9" stroke-width="0.5"/>
        <path id="Path_27179" data-name="Path 27179" d="M11.88,8.5a3.38,3.38,0,1,0,3.38,3.38A3.38,3.38,0,0,0,11.88,8.5Zm0,4.828a1.448,1.448,0,1,1,1.448-1.448A1.448,1.448,0,0,1,11.88,13.328Z" transform="translate(-0.292 -0.292)" fill="#454545" stroke="#c9c9c9" stroke-width="0.5"/>
      </g>
    </g>
  </g>
</svg>
