<svg xmlns="http://www.w3.org/2000/svg" version="1.1" xmlns:xlink="http://www.w3.org/1999/xlink" width="512" height="512" x="0" y="0" viewBox="0 0 64 64" style="enable-background:new 0 0 512 512" xml:space="preserve" class=""><g><path d="M59.5 49H61c.55 0 1-.45 1-1v-6c0-1.65-1.35-3-3-3H35c-.24 0-.47.03-.69.08-.06.01-.12.03-.18.05-.1.03-.19.06-.28.1-.09.03-.18.07-.26.12-.12.07-.24.14-.36.23-.08.06-.16.13-.24.2s-.15.14-.22.22c-.14.15-.26.31-.36.49-.27.46-.41.98-.41 1.51v6c0 .55.45 1 1 1h1.5c.4 0 .78.16 1.06.44.26.26.42.6.44.96.02.38-.12.76-.41 1.06-.32.34-.78.54-1.25.54H33c-.55 0-1 .45-1 1v6c0 1.65 1.35 3 3 3h24c1.65 0 3-1.35 3-3v-6c0-.55-.45-1-1-1h-1.34c-.47 0-.93-.2-1.25-.54-.29-.3-.43-.68-.41-1.05s.18-.71.44-.97c.28-.28.66-.44 1.06-.44zM41 46c0-1.65 1.35-3 3-3s3 1.35 3 3-1.35 3-3 3-3-1.35-3-3zm2 12c-.2 0-.4-.06-.57-.18a.996.996 0 0 1-.25-1.39l9-13c.31-.45.93-.57 1.39-.25.45.31.57.94.25 1.39l-9 13c-.19.28-.5.43-.82.43zm8 0c-1.65 0-3-1.35-3-3s1.35-3 3-3 3 1.35 3 3-1.35 3-3 3z" fill="#333333" opacity="1" data-original="#000000" class=""></path><circle cx="44" cy="46" r="1" fill="#333333" opacity="1" data-original="#000000" class=""></circle><circle cx="51" cy="55" r="1" fill="#333333" opacity="1" data-original="#000000" class=""></circle><path d="M17.33 42.76a5 5 0 0 0-.31-.61 7.41 7.41 0 0 0-.56-.89 8.46 8.46 0 0 0-.67-.79 7.98 7.98 0 0 0-1.79-1.4c-.19-.1-.38-.2-.57-.29-.46-.22-.94-.4-1.43-.53-.64-.17-1.31-.25-2-.25-4.41 0-8 3.59-8 8s3.59 8 8 8c3.68 0 6.87-2.54 7.74-6 .07-.27.12-.54.16-.82.07-.35.1-.73.1-1.18 0-1.03-.19-2.02-.55-2.93-.04-.11-.08-.21-.12-.31zM11 46c0 .55-.45 1-1 1H7.83c-.55 0-1-.45-1-1s.45-1 1-1H9v-2.33c0-.56.45-1 1-1s1 .44 1 1zM14 34.69V5c0-.55.45-1 1-1h22v7c0 .55.45 1 1 1h8v23h2V11c0-.28-.12-.55-.33-.75l-8.96-7.96-.04-.04a1 1 0 0 0-.41-.21A.746.746 0 0 0 38 2H15c-1.65 0-3 1.35-3 3v29.17c.35.05.69.12 1.03.21.33.09.65.19.97.31zM21.85 47.84l-.03.16H28v-2h-6c0 .68-.05 1.28-.15 1.84z" fill="#333333" opacity="1" data-original="#000000" class=""></path><path d="M19 12h15a1 1 0 1 0 0-2H19a1 1 0 1 0 0 2zM41 16H19a1 1 0 1 0 0 2h22a1 1 0 1 0 0-2zM41 22H19a1 1 0 1 0 0 2h22a1 1 0 1 0 0-2zM41 28H19a1 1 0 1 0 0 2h22a1 1 0 1 0 0-2zM32.97 35.3c.15-.05.33-.1.52-.14C34 35.05 34.5 35 35 35h7c0-.55-.45-1-1-1H19c-.55 0-1 .45-1 1s.45 1 1 1h12.41c.04-.03.09-.05.13-.08.27-.17.56-.31.87-.42.18-.08.36-.14.56-.2zM20.5 40.18c.19.32.36.65.51 1.01.01.03.14.34.18.46.05.12.09.23.13.35H28c0-.68.1-1.36.3-2h-7.9c.04.06.07.12.1.18z" fill="#333333" opacity="1" data-original="#000000" class=""></path></g></svg>