<svg xmlns="http://www.w3.org/2000/svg" version="1.1" xmlns:xlink="http://www.w3.org/1999/xlink" width="512" height="512" x="0" y="0" viewBox="0 0 512 512" style="enable-background:new 0 0 512 512" xml:space="preserve" class=""><g><path fill-rule="evenodd" d="M124.89 231.129c36.92 0 66.848 29.562 66.848 66.028s-29.929 66.029-66.848 66.029c-36.92 0-66.848-29.562-66.848-66.029 0-36.466 29.929-66.028 66.848-66.028zm339.689 72.281a7.491 7.491 0 0 1-3.867-14.473l27.975-7.496a7.49 7.49 0 1 1 3.867 14.473zm-30.217-43.307a7.49 7.49 0 0 1-14.473-3.867l6.971-26.016a7.49 7.49 0 0 1 14.473 3.867zm20.776 18.139 20.097-20.097a7.5 7.5 0 0 0-10.606-10.605l-20.096 20.097a7.5 7.5 0 0 0 10.605 10.605zm-9.554 73.907a7.5 7.5 0 0 1 10.605-10.606l19.045 19.045a7.5 7.5 0 0 1-10.606 10.605zm15.651-22.212a7.49 7.49 0 0 1 3.867-14.473l27.452 7.356a7.491 7.491 0 0 1-3.867 14.473zm-36.177 66.509c5.995-1.606 9.586-7.825 7.979-13.82l-39.259-146.517c-1.606-5.995-7.825-9.585-13.82-7.979s-9.586 7.825-7.979 13.82l39.259 146.517c1.606 5.995 7.825 9.585 13.82 7.979zm-133.005-99.848-31.46 8.43c-7.426 1.99-11.86 9.67-9.87 17.096l15.417 57.539c1.99 7.426 9.67 11.86 17.096 9.871l31.46-8.43zm37.726 82.917-23.87-89.083 54.25-34.635 33.919 126.588zm104.122-51.619-12.012-44.828c10.356 4.781 17.544 15.256 17.544 27.411a30.034 30.034 0 0 1-5.532 17.417zM249.554 375.72c-8.751-1.742-16.237-8.28-18.691-17.44s.76-18.565 7.467-24.449zm44.379 26.475 24.464 42.373c1.853 3.21 5.984 4.317 9.194 2.464l12.118-6.997c3.21-1.853 4.317-5.983 2.463-9.194l-20.786-36.003zM429.443 11H242.328c-6.832 0-12.421 5.592-12.421 12.422V141.73c0 6.831 5.59 12.422 12.421 12.422h112.665l25.669 19.749 27.687 21.302v-41.051h21.093c6.831 0 12.421-5.591 12.421-12.422V23.422c.001-6.831-5.588-12.422-12.42-12.422zM270.578 51.76a7.5 7.5 0 0 1 0-15h130.616a7.5 7.5 0 0 1 0 15zm0 76.633a7.5 7.5 0 0 1 0-15h130.616a7.5 7.5 0 0 1 0 15zm0-38.317a7.5 7.5 0 0 1 0-15h130.616a7.5 7.5 0 0 1 0 15zM188.75 60.494c-6.832 0-12.421 5.591-12.421 12.423v118.307c0 6.831 5.591 12.422 12.421 12.422h21.094v41.051l27.687-21.302 25.669-19.749h112.666c4.582 0 8.605-2.516 10.758-6.233l-36.733-28.261H242.328c-15.11 0-27.421-12.313-27.421-27.422V60.494zM13.887 501h222.005v-53.194c0-39.609-24.715-73.723-59.483-87.691-14.068 11.297-31.994 18.07-51.52 18.07s-37.452-6.773-51.52-18.07c-34.768 13.968-59.483 48.082-59.483 87.691V501z" clip-rule="evenodd" fill="#333333" opacity="1" data-original="#000000" class=""></path></g></svg>