<svg xmlns="http://www.w3.org/2000/svg" width="26.063" height="26.124" viewBox="0 0 26.063 26.124">
  <g id="Group_10375" data-name="Group 10375" transform="translate(492.178 -108.106)">
    <path id="Path_27191" data-name="Path 27191" d="M-383.4,115.21c0-.557,0-.557-.567-.557h-4.926c-.085,0-.17,0-.255,0a.74.74,0,0,1-.834-.832c0-1.766,0-3.533,0-5.3a.587.587,0,0,0-.077-.416h-11.385c-.174.069-.366.045-.541.127a2.283,2.283,0,0,0-1.42,2.175c-.019,2.726-.007,5.452-.006,8.178,0,.042,0,.085,0,.127.018.252.066.3.312.285a8.574,8.574,0,0,1,2.7.279,8.182,8.182,0,0,1,3.922,2.366,1.112,1.112,0,0,0,.9.407c2.493-.013,4.985-.007,7.478-.006a3.221,3.221,0,0,1,.357.008.689.689,0,0,1,.652.691.69.69,0,0,1-.65.667,3.06,3.06,0,0,1-.332.007h-6.483c-.111,0-.221,0-.332.007-.186.015-.236.109-.161.275a9.241,9.241,0,0,1,.771,2.684.253.253,0,0,0,.274.243c.1,0,.2,0,.306,0h5.641a2.347,2.347,0,0,1,.357.012.691.691,0,0,1,.608.678.7.7,0,0,1-.617.672,2.32,2.32,0,0,1-.331.011h-5.641c-.557,0-.563,0-.643.535a8.257,8.257,0,0,1-1.64,3.849,8.217,8.217,0,0,1-1.608,1.589c-.066.05-.162.109-.136.2s.133.045.2.045q5.947,0,11.894,0a1.939,1.939,0,0,0,.961-.21,2.21,2.21,0,0,0,1.246-2.062Q-383.4,123.579-383.4,115.21Zm-3.653,3.212a.782.782,0,0,1-.789.487h-5.536q-2.781,0-5.562,0a.763.763,0,0,1-.761-1.052.753.753,0,0,1,.745-.476h2.73q4.2,0,8.394,0A.766.766,0,0,1-387.055,118.422Z" transform="translate(-82.715)" fill="#333"/>
    <path id="Path_27192" data-name="Path 27192" d="M-184.911,120.072c0,.188.041.237.234.236,1.394-.009,2.787-.005,4.181-.005h.184l-4.587-4.577c-.03.041-.006.11-.006.173C-184.907,117.289-184.9,118.681-184.911,120.072Z" transform="translate(-286.34 -7.1)" fill="#333"/>
    <path id="Path_27193" data-name="Path 27193" d="M-478.394,296.084a6.9,6.9,0,0,0-6.889-6.882,6.9,6.9,0,0,0-6.9,6.876,6.9,6.9,0,0,0,6.889,6.883,7.071,7.071,0,0,0,5.765-3.11A6.52,6.52,0,0,0-478.394,296.084Zm-4.879.76q-.995.007-1.989,0a.762.762,0,0,1-.788-.787c-.005-.5,0-1,0-1.5s0-.984,0-1.477a.771.771,0,0,1,.757-.819.772.772,0,0,1,.774.828c0,.679.006,1.358,0,2.037,0,.156.034.2.195.2.348-.014.7-.007,1.046,0a.769.769,0,0,1,.805.771A.766.766,0,0,1-483.273,296.844Z" transform="translate(0 -168.764)" fill="#333"/>
  </g>
</svg>
