<svg id="Layer_2" data-name="Layer 2" xmlns="http://www.w3.org/2000/svg" width="24" height="24" viewBox="0 0 24 24">
  <g id="phone">
    <rect id="Rectangle_742" data-name="Rectangle 742" width="24" height="24" opacity="0"/>
    <path id="Path_27214" data-name="Path 27214" d="M16.04,20.233A14.058,14.058,0,0,1,2,6.194,4.194,4.194,0,0,1,6.194,2a3.592,3.592,0,0,1,.7.064,3.455,3.455,0,0,1,.656.164.912.912,0,0,1,.593.684l1.249,5.47a.912.912,0,0,1-.237.839c-.119.128-.128.137-1.249.72a9.035,9.035,0,0,0,4.44,4.458c.593-1.13.6-1.14.729-1.258a.912.912,0,0,1,.839-.237l5.47,1.249a.912.912,0,0,1,.656.593,3.956,3.956,0,0,1,.173.666,4.348,4.348,0,0,1,.055.693A4.194,4.194,0,0,1,16.04,20.233ZM6.194,3.823a2.379,2.379,0,0,0-2.37,2.37A12.225,12.225,0,0,0,16.04,18.41a2.379,2.379,0,0,0,2.37-2.37v-.3l-4.23-.975-.264.5c-.41.793-.711,1.367-1.477,1.058A10.8,10.8,0,0,1,5.893,9.749c-.328-.711.292-1.039,1.076-1.45l.5-.246-.975-4.23Z" transform="translate(0.883 0.883)"/>
  </g>
</svg>
