<svg xmlns="http://www.w3.org/2000/svg" width="49" height="52" viewBox="0 0 49 52">
  <g id="Group_10342" data-name="Group 10342" transform="translate(-495 -7)">
    <path id="Rectangle_227" data-name="Rectangle 227" d="M0,0H42a7,7,0,0,1,7,7V45a7,7,0,0,1-7,7H0a0,0,0,0,1,0,0V0A0,0,0,0,1,0,0Z" transform="translate(495 7)" fill="#c9c9c9"/>
    <g id="Icon_feather-eye-off" data-name="Icon feather-eye-off" transform="translate(510.786 24.643)">
      <path id="Path_26196" data-name="Path 26196" d="M14.374,16.594A7.653,7.653,0,0,1,9.86,18.159c-5.32,0-8.36-6.08-8.36-6.08A14.021,14.021,0,0,1,5.345,7.565M8.264,6.182A6.931,6.931,0,0,1,9.86,6c5.32,0,8.36,6.08,8.36,6.08A14.059,14.059,0,0,1,16.578,14.5m-5.107-.813a2.28,2.28,0,1,1-3.222-3.222" transform="translate(-1.5 -3.72)" fill="none" stroke="#454545" stroke-linecap="round" stroke-linejoin="round" stroke-width="1.5"/>
      <path id="Path_26197" data-name="Path 26197" d="M1.5,1.5,18.219,18.219" transform="translate(-1.5 -1.5)" fill="none" stroke="#454545" stroke-linecap="round" stroke-linejoin="round" stroke-width="1.5"/>
    </g>
  </g>
</svg>
