<svg width="166" height="132" viewBox="0 0 166 132" fill="none" xmlns="http://www.w3.org/2000/svg">
<rect x="2" y="2" width="162" height="128" rx="9" fill="#D3D3D3" stroke="#898484" stroke-width="4"/>
<path fill-rule="evenodd" clip-rule="evenodd" d="M78.7223 41.9105H66.2492C65.5755 41.9105 65.0303 41.3653 65.0303 40.6916V28.2189C65.0303 27.5452 65.5755 27 66.2492 27H78.7223C79.396 27 79.9412 27.5452 79.9412 28.2189V40.6916C79.9412 41.3653 79.396 41.9105 78.7223 41.9105ZM67.4681 39.4731H77.5038V29.4379H67.4681V39.4731Z" fill="#898484"/>
<path fill-rule="evenodd" clip-rule="evenodd" d="M99.7516 41.9105H87.2785C86.6053 41.9105 86.0596 41.3653 86.0596 40.6916V28.2189C86.0596 27.5452 86.6048 27 87.2785 27H99.7516C100.425 27 100.971 27.5452 100.971 28.2189V40.6916C100.971 41.3653 100.425 41.9105 99.7516 41.9105ZM88.497 39.4731H98.5327V29.4379H88.497V39.4731Z" fill="#898484"/>
<path fill-rule="evenodd" clip-rule="evenodd" d="M57.693 62.9422H45.2199C44.5467 62.9422 44.001 62.397 44.001 61.7233V49.2502C44.001 48.5765 44.5462 48.0312 45.2199 48.0312H57.693C58.3667 48.0312 58.9119 48.5765 58.9119 49.2502V61.7233C58.9119 62.396 58.3667 62.9422 57.693 62.9422ZM46.4388 60.5048H56.4745V50.4691H46.4388V60.5048Z" fill="#898484"/>
<path fill-rule="evenodd" clip-rule="evenodd" d="M99.7521 62.9422H87.279C86.6058 62.9422 86.0601 62.397 86.0601 61.7233V49.2502C86.0601 48.577 86.6054 48.0312 87.279 48.0312H99.7521C100.425 48.0312 100.971 48.5765 100.971 49.2502V61.7233C100.971 62.396 100.426 62.9422 99.7521 62.9422ZM78.7223 62.9422H66.2492C65.5755 62.9422 65.0303 62.397 65.0303 61.7233V49.2502C65.0303 48.577 65.5755 48.0312 66.2492 48.0312H78.7223C79.3955 48.0312 79.9408 48.5765 79.9408 49.2502V61.7233C79.9408 62.396 79.3955 62.9422 78.7223 62.9422ZM78.7223 83.972H66.2492C65.5755 83.972 65.0303 83.4268 65.0303 82.7531V70.28C65.0303 69.6068 65.5755 69.0615 66.2492 69.0615H78.7223C79.3955 69.0615 79.9408 69.6068 79.9408 70.28V82.7531C79.9408 83.4268 79.3955 83.972 78.7223 83.972ZM99.7521 83.972H87.279C86.6058 83.972 86.0601 83.4268 86.0601 82.7531V70.28C86.0601 69.6068 86.6054 69.0615 87.279 69.0615H99.7521C100.425 69.0615 100.971 69.6068 100.971 70.28V82.7531C100.971 83.4268 100.426 83.972 99.7521 83.972Z" fill="#898484"/>
<path fill-rule="evenodd" clip-rule="evenodd" d="M120.782 62.9422H108.309C107.636 62.9422 107.09 62.397 107.09 61.7233V49.2502C107.09 48.5765 107.635 48.0312 108.309 48.0312H120.781C121.455 48.0312 122 48.5765 122 49.2502V61.7233C122.001 62.396 121.455 62.9422 120.782 62.9422H120.782ZM109.528 60.5048H119.563V50.4691H109.528V60.5048Z" fill="#898484"/>
<path fill-rule="evenodd" clip-rule="evenodd" d="M57.693 83.9715H45.2199C44.5467 83.9715 44.001 83.4263 44.001 82.7526V70.2795C44.001 69.6063 44.5462 69.0605 45.2199 69.0605H57.693C58.3667 69.0605 58.9119 69.6058 58.9119 70.2795V82.7526C58.9119 83.4263 58.3667 83.9715 57.693 83.9715ZM46.4388 81.5346H56.4745V71.4984H46.4388V81.5346Z" fill="#898484"/>
<path fill-rule="evenodd" clip-rule="evenodd" d="M120.782 83.9715H108.309C107.636 83.9715 107.09 83.4263 107.09 82.7526V70.2795C107.09 69.6063 107.635 69.0605 108.309 69.0605H120.781C121.455 69.0605 122 69.6058 122 70.2795V82.7526C122.001 83.4263 121.455 83.9715 120.782 83.9715H120.782ZM109.528 81.5346H119.563V71.4984H109.528V81.5346Z" fill="#898484"/>
<path fill-rule="evenodd" clip-rule="evenodd" d="M78.7223 105.002H66.2492C65.5755 105.002 65.0303 104.457 65.0303 103.783V91.3107C65.0303 90.637 65.5755 90.0918 66.2492 90.0918H78.7223C79.396 90.0918 79.9412 90.637 79.9412 91.3107V103.783C79.9412 104.457 79.396 105.002 78.7223 105.002ZM67.4681 102.564H77.5038V92.5287H67.4681V102.564Z" fill="#898484"/>
<path fill-rule="evenodd" clip-rule="evenodd" d="M99.7516 105.002H87.2785C86.6053 105.002 86.0596 104.457 86.0596 103.783V91.3107C86.0596 90.637 86.6048 90.0918 87.2785 90.0918H99.7516C100.425 90.0918 100.971 90.637 100.971 91.3107V103.783C100.971 104.457 100.425 105.002 99.7516 105.002ZM88.497 102.564H98.5327V92.5287H88.497V102.564Z" fill="#898484"/>
<path fill-rule="evenodd" clip-rule="evenodd" d="M120.782 105.002H108.308C107.635 105.002 107.089 104.457 107.089 103.783V91.3102C107.089 90.637 107.635 90.0918 108.308 90.0918H120.781C121.455 90.0918 122 90.637 122 91.3102V103.783C122.001 104.457 121.455 105.002 120.782 105.002H120.782ZM120.782 41.9105H108.308C107.635 41.9105 107.089 41.3653 107.089 40.6916V28.2189C107.089 27.5457 107.635 27 108.308 27H120.781C121.455 27 122 27.5457 122 28.2189V40.6916C122.001 41.3653 121.455 41.9105 120.782 41.9105H120.782ZM57.692 105.002H45.2189C44.5453 105.002 44 104.457 44 103.783V91.3102C44 90.637 44.5453 90.0918 45.2189 90.0918H57.692C58.3657 90.0918 58.911 90.637 58.911 91.3102V103.783C58.911 104.457 58.3657 105.002 57.692 105.002ZM57.692 41.9105H45.2189C44.5453 41.9105 44 41.3653 44 40.6916V28.2189C44 27.5457 44.5453 27 45.2189 27H57.692C58.3657 27 58.911 27.5457 58.911 28.2189V40.6916C58.911 41.3653 58.3657 41.9105 57.692 41.9105Z" fill="#898484"/>
</svg>
