<svg width="158" height="194" viewBox="0 0 158 194" fill="none" xmlns="http://www.w3.org/2000/svg">
<path fill-rule="evenodd" clip-rule="evenodd" d="M107.088 42.4133C107.088 56.4676 95.6911 67.8615 81.6317 67.8615C78.5057 67.8615 75.5103 67.2974 72.7433 66.2667L87.9321 84.3619C108.376 81.32 124.059 63.6973 124.059 42.4133C124.059 18.9891 105.063 0 81.6317 0C62.918 0 47.0343 12.1116 41.3966 28.9213L56.5931 47.0255C56.319 45.5292 56.1756 43.9879 56.1756 42.4133C56.1756 28.3588 67.5731 16.9653 81.6317 16.9653C95.6911 16.9653 107.088 28.3588 107.088 42.4133ZM56.4047 102.912L2.00668 38.614C-1.02795 35.0271 -0.56855 29.6579 3.03128 26.6382C6.61126 23.6352 11.9464 24.0913 14.9643 27.6585L143.884 180.039C146.918 183.627 146.459 188.995 142.859 192.015C139.279 195.018 133.944 194.563 130.926 190.995L117.873 175.567C112.505 177.236 106.797 178.136 100.879 178.136H62.3843C30.8374 178.136 5.26344 152.57 5.26344 121.033C5.26344 117.705 7.00855 114.648 10.0674 113.335C17.1071 110.313 32.0941 105.17 56.4047 102.912ZM105.473 160.91C103.966 161.082 102.433 161.171 100.879 161.171H62.3843C42.1365 161.171 25.3893 146.187 22.6321 126.706C31.3151 123.791 46.7526 119.983 70.0144 118.998L105.473 160.91ZM103.243 102.603L119.159 121.565C128.617 123.114 135.709 125.054 140.631 126.706C139.894 131.917 138.155 136.806 135.616 141.173L146.998 154.731C153.916 145.286 158 133.637 158 121.033C158 117.705 156.255 114.648 153.196 113.335C145.814 110.166 129.692 104.664 103.243 102.603Z" fill="#D93535"/>
</svg>
