<svg xmlns="http://www.w3.org/2000/svg" width="17.404" height="17.404" viewBox="0 0 17.404 17.404">
  <g id="Icon_feather-eye-off" data-name="Icon feather-eye-off" transform="translate(1.061 1.061)">
    <path id="Path_26196" data-name="Path 26196" d="M13.267,15.683a7,7,0,0,1-4.126,1.431c-4.863,0-7.641-5.557-7.641-5.557A12.816,12.816,0,0,1,5.015,7.431M7.682,6.167A6.335,6.335,0,0,1,9.141,6c4.863,0,7.641,5.557,7.641,5.557a12.851,12.851,0,0,1-1.5,2.216m-4.668-.743a2.084,2.084,0,1,1-2.945-2.945" transform="translate(-1.5 -3.916)" fill="none" stroke="#454545" stroke-linecap="round" stroke-linejoin="round" stroke-width="1.5"/>
    <path id="Path_26197" data-name="Path 26197" d="M1.5,1.5,16.782,16.782" transform="translate(-1.5 -1.5)" fill="none" stroke="#454545" stroke-linecap="round" stroke-linejoin="round" stroke-width="1.5"/>
  </g>
</svg>
