<svg xmlns="http://www.w3.org/2000/svg" width="23.869" height="22.48" viewBox="0 0 23.869 22.48">
  <g id="Group_10253" data-name="Group 10253" transform="translate(-777.76 -268.76)">
    <path id="Path_27146" data-name="Path 27146" d="M8.027,6.685A1.342,1.342,0,0,0,8.027,4H5.342A1.342,1.342,0,0,0,4,5.342V24.137A1.342,1.342,0,0,0,5.342,25.48H8.027a1.342,1.342,0,0,0,0-2.685H6.685V6.685Z" transform="translate(774.26 265.26)" fill="#de5151" stroke="#de5151" stroke-width="1"/>
    <path id="Path_27147" data-name="Path 27147" d="M24.868,12.934l-3.786-5.37a1.343,1.343,0,1,0-2.188,1.557L21.2,12.37H10.342a1.342,1.342,0,1,0,0,2.685h10.74l-2.416,3.222a1.342,1.342,0,0,0,2.148,1.611l4.027-5.37a1.342,1.342,0,0,0,.027-1.584Z" transform="translate(775.973 266.287)" fill="#de5151" stroke="#de5151" stroke-width="1"/>
  </g>
</svg>
