<svg xmlns="http://www.w3.org/2000/svg" width="20" height="20" viewBox="0 0 20 20">
  <g id="Layer_2" data-name="Layer 2" transform="translate(0.27 0.27)">
    <g id="phone">
      <rect id="Rectangle_595" data-name="Rectangle 595" width="20" height="20" transform="translate(-0.27 -0.27)" fill="#707070" opacity="0"/>
      <path id="Path_27129" data-name="Path 27129" d="M14.487,18.217A12.5,12.5,0,0,1,2,5.73,3.73,3.73,0,0,1,5.73,2a3.2,3.2,0,0,1,.624.057,3.073,3.073,0,0,1,.584.146.811.811,0,0,1,.527.608L8.576,7.676a.811.811,0,0,1-.211.746c-.105.114-.114.122-1.111.641A8.036,8.036,0,0,0,11.2,13.028c.527-1.005.535-1.014.649-1.119A.811.811,0,0,1,12.6,11.7l4.865,1.111a.811.811,0,0,1,.584.527,3.519,3.519,0,0,1,.154.592,3.868,3.868,0,0,1,.049.616A3.73,3.73,0,0,1,14.487,18.217ZM5.73,3.622A2.116,2.116,0,0,0,3.622,5.73,10.874,10.874,0,0,0,14.487,16.6,2.116,2.116,0,0,0,16.6,14.487V14.22l-3.762-.868L12.6,13.8c-.365.705-.632,1.216-1.314.941A9.609,9.609,0,0,1,5.462,8.892c-.292-.632.259-.924.957-1.289l.446-.219L6,3.622Z" transform="translate(-0.378 -0.378)" fill="#707070"/>
    </g>
  </g>
</svg>
