<svg id="Layer_2" data-name="Layer 2" xmlns="http://www.w3.org/2000/svg" width="19.979" height="19.979" viewBox="0 0 19.979 19.979">
  <g id="flag">
    <path id="Path_26829" data-name="Path 26829" d="M19.979,19.979H0V0" fill="#707070" opacity="0"/>
    <path id="Path_26830" data-name="Path 26830" d="M17.619,4.465a1.627,1.627,0,0,0-1.427-.218,6.86,6.86,0,0,1-1.935.244,7.757,7.757,0,0,1-2.792-.68A9.222,9.222,0,0,0,8.014,3a5.691,5.691,0,0,0-3.746.994A.862.862,0,0,0,4,4.622v13.2a.892.892,0,0,0,1.784,0v-3.75a5.716,5.716,0,0,1,2.23-.358,7.757,7.757,0,0,1,2.792.68,9.222,9.222,0,0,0,3.452.811,6.966,6.966,0,0,0,3.122-.61,1.516,1.516,0,0,0,.892-1.352V5.712a1.533,1.533,0,0,0-.651-1.247Zm-1.133,8.642a5.753,5.753,0,0,1-2.23.358,7.593,7.593,0,0,1-2.792-.689,9.4,9.4,0,0,0-3.452-.8,8.666,8.666,0,0,0-2.23.253V5.11a5.579,5.579,0,0,1,2.23-.366,7.593,7.593,0,0,1,2.792.689,9.4,9.4,0,0,0,3.452.8,8.574,8.574,0,0,0,2.23-.262Z" transform="translate(-1.146 -0.859)" fill="#707070"/>
  </g>
</svg>
