<svg xmlns="http://www.w3.org/2000/svg" width="22" height="22" viewBox="0 0 22 22">
  <g id="Layer_2" data-name="Layer 2" transform="translate(-0.056 -0.056)">
    <g id="search">
      <rect id="Rectangle_596" data-name="Rectangle 596" width="22" height="22" transform="translate(0.056 0.056)" fill="#333" opacity="0"/>
      <path id="Path_27130" data-name="Path 27130" d="M19.316,18.008l-3.132-3.123a7.3,7.3,0,0,0,1.557-4.514,7.37,7.37,0,1,0-7.37,7.37,7.3,7.3,0,0,0,4.514-1.557l3.123,3.132a.925.925,0,1,0,1.308-1.308ZM4.843,10.37A5.528,5.528,0,1,1,10.37,15.9,5.528,5.528,0,0,1,4.843,10.37Z" transform="translate(-0.236 -0.236)" fill="#333"/>
    </g>
  </g>
</svg>
