<svg id="Group_9946" data-name="Group 9946" xmlns="http://www.w3.org/2000/svg" width="69" height="73" viewBox="0 0 69 73">
  <path id="Rectangle_227" data-name="Rectangle 227" d="M0,0H57A12,12,0,0,1,69,12V61A12,12,0,0,1,57,73H0a0,0,0,0,1,0,0V0A0,0,0,0,1,0,0Z" fill="#fff"/>
  <g id="Layer_2" data-name="Layer 2" transform="translate(19.36 22.983)">
    <g id="eye" transform="translate(1.64 4.105)">
      <path id="Path_27136" data-name="Path 27136" d="M28.72,13.742C27.86,12.249,23.126,4.759,15.085,5,7.649,5.19,3.346,11.725,2.176,13.742a1.345,1.345,0,0,0,0,1.345c.847,1.466,5.379,8.741,13.3,8.741h.336c7.436-.188,11.753-6.723,12.909-8.741A1.345,1.345,0,0,0,28.72,13.742Zm-12.976,7.4c-5.8.134-9.574-4.827-10.758-6.723C6.331,12.249,9.841,7.825,15.22,7.691c5.769-.148,9.561,4.827,10.758,6.723C24.592,16.579,21.123,21,15.744,21.138Z" transform="translate(-1.996 -4.996)" fill="#454545"/>
      <path id="Path_27137" data-name="Path 27137" d="M13.206,8.5a4.706,4.706,0,1,0,4.706,4.706A4.706,4.706,0,0,0,13.206,8.5Zm0,6.723a2.017,2.017,0,1,1,2.017-2.017A2.017,2.017,0,0,1,13.206,15.223Z" transform="translate(0.246 -3.788)" fill="#454545"/>
    </g>
  </g>
</svg>
