<svg xmlns="http://www.w3.org/2000/svg" width="17.058" height="11.939" viewBox="0 0 17.058 11.939">
  <g id="Layer_2" data-name="Layer 2" transform="translate(-1.64 -4.105)">
    <g id="eye" transform="translate(1.64 4.105)">
      <path id="Path_27136" data-name="Path 27136" d="M18.94,10.541c-.546-.946-3.547-5.7-8.645-5.542C5.58,5.119,2.852,9.262,2.11,10.541a.853.853,0,0,0,0,.853c.537.929,3.41,5.542,8.432,5.542h.213c4.715-.119,7.451-4.263,8.184-5.542A.853.853,0,0,0,18.94,10.541ZM10.712,15.23c-3.674.085-6.07-3.061-6.82-4.263C4.745,9.595,6.97,6.79,10.38,6.7c3.657-.094,6.062,3.061,6.82,4.263-.878,1.373-3.078,4.177-6.488,4.263Z" transform="translate(-1.996 -4.996)" fill="#454545"/>
      <path id="Path_27137" data-name="Path 27137" d="M11.484,8.5a2.984,2.984,0,1,0,2.984,2.984A2.984,2.984,0,0,0,11.484,8.5Zm0,4.263a1.279,1.279,0,1,1,1.279-1.279A1.279,1.279,0,0,1,11.484,12.763Z" transform="translate(-2.955 -5.512)" fill="#454545"/>
    </g>
  </g>
</svg>
