<svg xmlns="http://www.w3.org/2000/svg" width="75" height="75" viewBox="0 0 75 75">
  <g id="Group_10291" data-name="Group 10291" transform="translate(-60 -478)">
    <rect id="Rectangle_658" data-name="Rectangle 658" width="75" height="75" rx="16" transform="translate(60 478)" fill="#38c7bc"/>
    <g id="Layer_2" data-name="Layer 2" transform="translate(80.514 497.085)">
      <g id="Group_9613" data-name="Group 9613" transform="translate(-54.436 -254.589)">
        <g id="Group_9451" data-name="Group 9451" transform="translate(54.922 258.504)">
          <path id="Icon_material-history" data-name="Icon material-history" d="M20.929,4.5A14.573,14.573,0,0,0,6.357,19.071H1.5l6.3,6.3.113.227,6.541-6.525H9.6a11.388,11.388,0,1,1,3.335,8l-2.3,2.3A14.568,14.568,0,1,0,20.929,4.5ZM19.31,12.6v8.1l6.93,4.112L27.4,22.844l-5.667-3.368V12.6Z" transform="translate(-1.5 -4.5)" fill="#fff"/>
          <path id="Icon_material-history-2" data-name="Icon material-history" d="M18.262,12.119v8.1l6.93,4.112,1.166-1.959L20.69,19V12.119Z" transform="translate(-0.452 -4.024)" fill="#fff"/>
        </g>
      </g>
    </g>
  </g>
</svg>
