<svg xmlns="http://www.w3.org/2000/svg" width="75" height="75" viewBox="0 0 75 75">
  <g id="Group_10291" data-name="Group 10291" transform="translate(-60 -478)">
    <rect id="Rectangle_658" data-name="Rectangle 658" width="75" height="75" rx="16" transform="translate(60 478)" fill="#3884c7"/>
    <g id="noun-list-1257943" transform="translate(11.222 499.222)">
      <path id="Path_27160" data-name="Path 27160" d="M94.692,0H76.914A6.914,6.914,0,0,0,70,6.914V24.692a6.914,6.914,0,0,0,6.914,6.914H94.692a6.914,6.914,0,0,0,6.914-6.914V6.914A6.914,6.914,0,0,0,94.692,0ZM99.63,24.692a4.939,4.939,0,0,1-4.938,4.938H76.914a4.939,4.939,0,0,1-4.938-4.938V6.914a4.939,4.939,0,0,1,4.938-4.938H94.692A4.939,4.939,0,0,1,99.63,6.914Z" transform="translate(0 0)" fill="#fff" stroke="#fff" stroke-linecap="round" stroke-linejoin="round" stroke-width="0.5"/>
      <path id="Path_27161" data-name="Path 27161" d="M297.5,140h11.852v1.975H297.5Z" transform="translate(-214.66 -132.099)" fill="#fff" stroke="#fff" stroke-linecap="round" stroke-linejoin="round" stroke-width="0.5"/>
      <path id="Path_27162" data-name="Path 27162" d="M297.5,262.5h11.852v1.975H297.5Z" transform="translate(-214.66 -247.685)" fill="#fff" stroke="#fff" stroke-linecap="round" stroke-linejoin="round" stroke-width="0.5"/>
      <path id="Path_27163" data-name="Path 27163" d="M297.5,385h11.852v1.975H297.5Z" transform="translate(-214.66 -363.271)" fill="#fff" stroke="#fff" stroke-linecap="round" stroke-linejoin="round" stroke-width="0.5"/>
      <path id="Path_27164" data-name="Path 27164" d="M196.451,124.475a1.975,1.975,0,1,1-1.975-1.975,1.976,1.976,0,0,1,1.975,1.975" transform="translate(-115.586 -115.586)" fill="#fff" stroke="#fff" stroke-linecap="round" stroke-linejoin="round" stroke-width="0.5"/>
      <path id="Path_27165" data-name="Path 27165" d="M196.451,246.975A1.975,1.975,0,1,1,194.475,245a1.975,1.975,0,0,1,1.975,1.975" transform="translate(-115.586 -231.173)" fill="#fff" stroke="#fff" stroke-linecap="round" stroke-linejoin="round" stroke-width="0.5"/>
      <path id="Path_27166" data-name="Path 27166" d="M196.451,369.475a1.975,1.975,0,1,1-1.975-1.975,1.975,1.975,0,0,1,1.975,1.975" transform="translate(-115.586 -346.759)" fill="#fff" stroke="#fff" stroke-linecap="round" stroke-linejoin="round" stroke-width="0.5"/>
    </g>
  </g>
</svg>
