<svg xmlns="http://www.w3.org/2000/svg" width="24.206" height="28.02" viewBox="0 0 24.206 28.02">
  <g id="Group_10321" data-name="Group 10321" transform="translate(-708.765 -443.488)">
    <g id="noun-smartphone-5129391" transform="translate(708.765 443.488)">
      <path id="Path_27173" data-name="Path 27173" d="M193.615,0h-8.378a2.364,2.364,0,0,0-2.363,2.363V19.595a2.364,2.364,0,0,0,2.363,2.363h8.374a2.364,2.364,0,0,0,2.363-2.363V2.363A2.363,2.363,0,0,0,193.615,0ZM184.25,5.3H194.6V16.658H184.25Zm.986-3.923h8.374a.991.991,0,0,1,.99.99V3.923H184.25V2.363a.99.99,0,0,1,.986-.99Zm8.378,19.209h-8.378a.991.991,0,0,1-.991-.99V18.03H194.6v1.561a.99.99,0,0,1-.986.99Z" transform="translate(-182.874)" fill="#4d8fe8"/>
      <path id="Path_27174" data-name="Path 27174" d="M308.356,51.466H310.3a.686.686,0,1,0,0-1.372h-1.947a.686.686,0,0,0,0,1.372Z" transform="translate(-302.778 -48.13)" fill="#4d8fe8"/>
    </g>
    <g id="Group_10311" data-name="Group 10311" transform="translate(714.661 453.199)">
      <circle id="Ellipse_64" data-name="Ellipse 64" cx="9.155" cy="9.155" r="9.155" transform="translate(0 0)" fill="#fff"/>
      <g id="Icon_feather-calendar" data-name="Icon feather-calendar" transform="translate(3.918 3.07)">
        <path id="Path_27169" data-name="Path 27169" d="M5.633,6h7.931A1.133,1.133,0,0,1,14.7,7.133v7.931A1.133,1.133,0,0,1,13.564,16.2H5.633A1.133,1.133,0,0,1,4.5,15.064V7.133A1.133,1.133,0,0,1,5.633,6Z" transform="translate(-4.5 -4.867)" fill="none" stroke="#4d8fe8" stroke-linecap="round" stroke-linejoin="round" stroke-width="1.5"/>
        <path id="Path_27170" data-name="Path 27170" d="M24,3V5.266" transform="translate(-16.635 -3)" fill="none" stroke="#4d8fe8" stroke-linecap="round" stroke-linejoin="round" stroke-width="1.5"/>
        <path id="Path_27171" data-name="Path 27171" d="M12,3V5.266" transform="translate(-9.167 -3)" fill="none" stroke="#4d8fe8" stroke-linecap="round" stroke-linejoin="round" stroke-width="1.5"/>
        <path id="Path_27172" data-name="Path 27172" d="M4.5,15H14.7" transform="translate(-4.5 -10.468)" fill="none" stroke="#4d8fe8" stroke-linecap="round" stroke-linejoin="round" stroke-width="1.5"/>
      </g>
    </g>
  </g>
</svg>
