<svg xmlns="http://www.w3.org/2000/svg" width="28" height="28" viewBox="0 0 28 28">
  <g id="Layer_2" data-name="Layer 2" transform="translate(-0.254 -0.254)">
    <g id="calendar">
      <rect id="Rectangle_734" data-name="Rectangle 734" width="28" height="28" transform="translate(0.254 0.254)" fill="#00e556" opacity="0"/>
      <path id="Path_27199" data-name="Path 27199" d="M20.817,4.376H19.63V3.188a1.188,1.188,0,0,0-2.376,0V4.376H10.127V3.188a1.188,1.188,0,1,0-2.376,0V4.376H6.563A3.563,3.563,0,0,0,3,7.939V22.193a3.563,3.563,0,0,0,3.563,3.563H20.817a3.563,3.563,0,0,0,3.563-3.563V7.939a3.563,3.563,0,0,0-3.563-3.563ZM8.939,19.817a1.188,1.188,0,1,1,1.188-1.188A1.188,1.188,0,0,1,8.939,19.817Zm9.5,0H13.69a1.188,1.188,0,0,1,0-2.376h4.751a1.188,1.188,0,0,1,0,2.376Zm3.563-7.127H5.376V7.939A1.188,1.188,0,0,1,6.563,6.751H7.751V7.939a1.188,1.188,0,0,0,2.376,0V6.751h7.127V7.939a1.188,1.188,0,0,0,2.376,0V6.751h1.188a1.188,1.188,0,0,1,1.188,1.188Z" transform="translate(0.563 0.376)" fill="#00e556"/>
    </g>
  </g>
</svg>
