<svg xmlns="http://www.w3.org/2000/svg" width="26.353" height="26.35" viewBox="0 0 26.353 26.35">
  <path id="Path_27196" data-name="Path 27196" d="M0,12.778A12.775,12.775,0,1,1,13.365,25.539,12.766,12.766,0,0,1,0,12.778Zm11.49-9.32a13.163,13.163,0,0,0,0,18.553Zm2.573.135v18.43A13.055,13.055,0,0,0,14.063,3.593Zm3.6,18.119a9.63,9.63,0,0,0,3.268-2.8A10.024,10.024,0,0,0,22.955,11.9a9.9,9.9,0,0,0-1.591-4.641A9.813,9.813,0,0,0,17.778,3.91,15.915,15.915,0,0,1,17.663,21.712ZM7.848,3.84A10.19,10.19,0,0,0,2.661,14.264a9.975,9.975,0,0,0,2.575,5.392A9.655,9.655,0,0,0,7.8,21.684C4.117,15.691,4.25,9.774,7.848,3.84Z" transform="translate(25.953 0.4) rotate(90)" fill="#c73b3b" stroke="#eaeaea" stroke-linejoin="bevel" stroke-width="0.8"/>
</svg>
