<svg xmlns="http://www.w3.org/2000/svg" width="45" height="45" viewBox="0 0 45 45">
  <g id="Group_10379" data-name="Group 10379" transform="translate(-90 -259)">
    <rect id="Rectangle_714" data-name="Rectangle 714" width="45" height="45" rx="8" transform="translate(90 259)" fill="#00e556" opacity="0.117"/>
    <g id="noun-location-1508392" transform="translate(102.154 268.783)">
      <path id="Path_27195" data-name="Path 27195" d="M160.693,36.6A10.346,10.346,0,0,0,140,36.6v.431a20.559,20.559,0,0,0,.345,2.2c1.207,5.044,5.3,8.881,10,12.459,4.7-3.578,8.794-7.415,10-12.459a19.028,19.028,0,0,0,.345-2.2Zm-10.346,4.311a4.311,4.311,0,1,1,4.311-4.311A4.324,4.324,0,0,1,150.346,40.907Z" transform="translate(-140 -26.25)" fill="#00e556"/>
    </g>
  </g>
</svg>
