<svg xmlns="http://www.w3.org/2000/svg" width="26.353" height="26.356" viewBox="0 0 26.353 26.356">
  <path id="Path_27196" data-name="Path 27196" d="M-780.291-146.805a12.767,12.767,0,0,1,12.766-12.779,12.777,12.777,0,0,1,12.787,12.79,12.8,12.8,0,0,1-12.186,12.752A12.791,12.791,0,0,1-780.291-146.805Zm11.491-9.321a13.067,13.067,0,0,0-3.742,10.751,13.045,13.045,0,0,0,3.742,7.8Zm2.573.135v18.432A13.056,13.056,0,0,0-766.226-155.991Zm3.6,18.121a9.63,9.63,0,0,0,3.268-2.8,10.025,10.025,0,0,0,2.023-7.015,9.9,9.9,0,0,0-1.591-4.641,9.814,9.814,0,0,0-3.586-3.346A15.916,15.916,0,0,1-762.625-137.87Zm-9.817-17.874a10.191,10.191,0,0,0-5.187,10.426,9.976,9.976,0,0,0,2.575,5.393,9.657,9.657,0,0,0,2.569,2.027C-776.174-143.892-776.04-149.809-772.442-155.744Z" transform="translate(780.691 159.984)" fill="#513bc7" stroke="#eaeaea" stroke-linejoin="bevel" stroke-width="0.8"/>
</svg>
